# xmcd
#
# Track frame offsets: 
#        150
#        16640
#        29911
#        44779
#        59544
#        70933
#        85170
#        100528
#        117472
#        131837
#
# Disc length: 2357 seconds
#
# Revision: 1
# Processed by: cddbd v1.5.2PL0 Copyright (c) Steve Scherf et al.
# Submitted via: ExactAudioCopy v0.99pb5
#
DISCID=8d09330a
DTITLE=Moulann - Introflective
DYEAR=2003
DGENRE=Rhythmic Soul
TTITLE0=Can't Stop myself
TTITLE1=Over Again
TTITLE2=A Little Contact
TTITLE3=Strssed Out
TTITLE4=1000 Dreams
TTITLE5=Dancing On A Cloud
TTITLE6=When You Turn Away
TTITLE7=Amitofo
TTITLE8=Where Did Forever Go?
TTITLE9=Daydream
EXTD=YEAR: 2003
EXTT0=
EXTT1=
EXTT2=
EXTT3=
EXTT4=
EXTT5=
EXTT6=
EXTT7=
EXTT8=
EXTT9=
PLAYORDER=
